# Created by Kenney (www.kenney.nl)

mtllib light.mtl

v 4 5 -4
v 4 -3 -4
v 4 5 4
v 4 -3 4
v -4 5 -4
v -4 5 4
v -4 -3 4
v -4 -3 -4
v 4 4 -4
v 4 4 4
v 3 5 -4
v 3 5 4
v 3 4 4
v 3 4 -4

vn 1 0 0
vn 0 1 0
vn 0 -1 0
vn -1 0 0
vn 0 0 -1
vn 0 0 1

vt 0.6875 0.0625

usemtl light

f 3/1/1 2/1/1 1/1/1
f 2/1/1 3/1/1 4/1/1
f 5/1/2 3/1/2 1/1/2
f 3/1/2 5/1/2 6/1/2
f 7/1/3 2/1/3 4/1/3
f 2/1/3 7/1/3 8/1/3
f 7/1/4 5/1/4 8/1/4
f 5/1/4 7/1/4 6/1/4
f 5/1/5 2/1/5 8/1/5
f 2/1/5 5/1/5 1/1/5
f 3/1/6 7/1/6 4/1/6
f 7/1/6 3/1/6 6/1/6
f 3/1/1 9/1/1 1/1/1
f 9/1/1 3/1/1 10/1/1
f 11/1/2 3/1/2 1/1/2
f 3/1/2 11/1/2 12/1/2
f 13/1/3 9/1/3 10/1/3
f 9/1/3 13/1/3 14/1/3
f 13/1/4 11/1/4 14/1/4
f 11/1/4 13/1/4 12/1/4
f 11/1/5 9/1/5 14/1/5
f 9/1/5 11/1/5 1/1/5
f 3/1/6 13/1/6 10/1/6
f 13/1/6 3/1/6 12/1/6

